<svg width="89" height="50" viewBox="0 0 89 50" fill="none" xmlns="http://www.w3.org/2000/svg">
<g clip-path="url(#clip0_2987_10125)">
<path d="M10.7877 49.1645C16.0217 51.2015 21.9067 49.3305 25.8917 45.5418C34.5322 37.3278 29.0989 27.7652 28.6265 28.7947C28.5696 28.9192 28.4233 44.4954 18.1689 37.8516C7.46662 30.9199 0.433594 35.5268 0.433594 35.5268C0.433594 35.5268 2.71667 46.0241 10.7877 49.1645Z" fill="#515B3F"/>
<path d="M3.13282 37.4682C6.64933 41.8534 12.6793 43.1824 18.0207 41.8975C29.6031 39.111 29.6704 28.1093 28.7476 28.7641C28.6363 28.8432 20.7361 42.2592 15.1708 31.369C9.3621 20.0054 0.972691 20.4709 0.972691 20.4709C0.972691 20.4709 -2.28885 30.7051 3.13282 37.4682Z" fill="#869F6F"/>
<path d="M2.21592 23.5541C3.07273 29.114 7.63112 33.2839 12.8988 34.8463C24.3206 38.2357 29.8691 28.7418 28.7431 28.8456C28.6072 28.8585 15.0693 36.5202 15.684 24.3009C16.326 11.5501 8.82702 7.75098 8.82702 7.75098C8.82702 7.75098 0.894481 14.9796 2.21463 23.5528L2.21592 23.5541Z" fill="#EEB36A"/>
<path d="M8.44737 10.9393C6.41408 16.1828 8.2817 22.0785 12.0635 26.0708C20.2627 34.727 29.8079 29.2838 28.7802 28.8105C28.656 28.7535 13.108 28.607 19.7398 18.3339C26.6589 7.6122 22.0604 0.566406 22.0604 0.566406C22.0604 0.566406 11.5821 2.85363 8.44737 10.9393Z" fill="#F9DE9E"/>
<path d="M20.251 3.13899C15.8738 6.66189 14.5472 12.7028 15.8298 18.0539C18.6112 29.6573 29.593 29.7248 28.9394 28.8003C28.8604 28.6888 15.4687 20.7742 26.3392 15.1988C37.6821 9.37959 37.2175 0.974946 37.2175 0.974946C37.2175 0.974946 27.0019 -2.29252 20.251 3.13899Z" fill="#EFF0E8"/>
<path d="M41.0159 28.3618C36.1352 28.3618 32.95 22.3741 36.8548 19.0807C37.9679 18.1368 38.738 18.6009 39.6802 20.1102C35.5709 22.4947 36.6322 27.4698 41.0159 27.4698C45.947 27.4698 47.7797 15.7704 47.7629 15.7704C47.4885 15.7536 42.6428 21.1747 42.0603 21.8438C41.7691 23.7822 41.8545 25.7038 42.2998 27.025C41.4093 27.4374 39.9533 27.4192 39.7488 26.5621C38.8751 22.8227 41.3757 16.5782 45.1251 14.6735C39.7138 13.8839 34.6274 14.9652 33.1377 20.9011C32.8128 22.1874 31.6816 22.2224 30.6035 21.587C32.0078 14.0213 39.7993 12.7869 46.3405 14.0044C46.5462 14.0382 46.7339 14.0732 46.9229 14.125C47.0769 14.3999 47.2659 14.9315 46.8025 15.0002C44.5427 15.3607 43.1035 17.5909 42.402 20.1465C44.0807 18.2249 47.0937 14.7941 48.0023 14.7591C50.2802 14.7072 50.1262 28.3631 41.0159 28.3631V28.3618Z" fill="black"/>
<path d="M55.6571 21.7048C55.1433 23.3684 53.7054 27.0054 51.6152 27.0054C47.2315 26.9885 50.6561 19.5939 51.4611 17.6386C52.129 17.4325 54.2529 17.295 53.8931 18.1534C52.9858 20.0918 50.537 26.0277 51.7873 26.0614C53.2252 26.0614 54.4587 22.9042 54.9039 21.7035H55.6571V21.7048ZM52.3684 15.8726C52.4707 15.4097 52.5056 14.8431 52.6079 14.5682C52.9327 13.8823 55.2456 14.2428 55.2624 14.6538C55.2106 14.6538 54.0121 15.8376 53.6873 16.5404C52.8486 16.3861 52.1976 16.5741 52.3684 15.8713V15.8726Z" fill="black"/>
<path d="M63.5174 18.1537C61.9423 21.5509 59.4081 32.5474 56.6332 32.3413C56.6332 31.8784 56.5814 31.6554 56.8558 31.4323C57.5068 30.9526 58.2769 27.5386 59.0988 24.1583C58.1915 25.5652 57.0616 27.0407 56.188 27.0057C53.2604 26.937 54.2699 17.5534 58.9448 17.7077C59.7666 17.7414 60.2973 18.1369 60.6053 18.7022C60.7593 18.273 60.9302 17.9126 61.0842 17.639C61.7688 17.4328 63.8927 17.2954 63.5161 18.1537H63.5174ZM60.1601 20.0585C60.1083 19.3557 59.8352 18.4973 59.047 18.4805C58.0025 18.4468 55.81 26.1486 56.3588 26.1486C57.0098 26.1655 59.2696 22.3574 59.733 21.5859C59.8702 21.0374 60.0242 20.5395 60.1614 20.0585H60.1601Z" fill="black"/>
<path d="M69.3232 21.7048C68.8093 23.3684 67.3714 27.0054 65.2812 27.0054C60.8975 26.9885 64.3221 19.5939 65.1272 17.6386C65.795 17.4325 67.9189 17.295 67.5591 18.1534C66.6518 20.0918 64.203 26.0277 65.4533 26.0614C66.8912 26.0614 68.1247 22.9042 68.5699 21.7035H69.3232V21.7048ZM66.0357 15.8726C66.138 15.4097 66.1729 14.8431 66.2752 14.5682C66.6 13.8823 68.9129 14.2428 68.9297 14.6538C68.8779 14.6538 67.6794 15.8376 67.3546 16.5404C66.5159 16.3861 65.8649 16.5741 66.0357 15.8713V15.8726Z" fill="black"/>
<path d="M72.8509 17.33C71.3444 20.6921 69.1869 26.1133 70.4022 26.1483C71.8233 26.1483 73.0736 22.9055 73.502 21.7048H74.272C73.7582 23.3684 72.3203 27.0054 70.2132 27.0054C66.258 26.9885 68.5178 21.1045 70.2469 17.2613L68.8258 17.2276H68.5514C68.5514 16.7478 68.3974 16.3692 68.8258 16.3692L70.6235 16.4211C70.9833 15.6496 71.2914 14.9974 71.4622 14.5682C71.7871 13.8823 74.0999 14.2428 74.1167 14.6538C74.0999 14.6538 73.7401 15.3916 73.2263 16.4898L74.7509 16.5235C75.2479 16.5404 75.059 16.8153 75.0421 17.3819L72.8497 17.33H72.8509Z" fill="black"/>
<path d="M84.0675 21.7051C83.5368 23.3687 82.0976 27.0057 80.0087 27.0057C78.1928 27.0057 77.7139 25.7363 77.8343 24.1233C77.0293 25.5301 75.9512 27.0562 74.82 27.0057C70.8815 26.7995 73.7419 17.5871 77.5768 17.7076C78.484 17.7414 79.0496 18.2224 79.3227 18.8914C79.5453 18.3767 79.7343 17.9475 79.8534 17.6389C80.5212 17.4159 82.6451 17.2953 82.2853 18.1537C81.378 20.0921 78.9293 26.1136 80.1963 26.1486C81.6174 26.1486 82.8509 22.9058 83.2961 21.7051H84.0662H84.0675ZM78.7934 20.2646C78.7934 19.5268 78.5539 18.4973 77.6803 18.4804C76.6358 18.4467 74.5805 26.0293 75.0089 26.1655C75.5564 26.3197 77.8861 22.391 78.3481 21.6027C78.4853 21.1398 78.6393 20.6937 78.7934 20.2646Z" fill="black"/>
<path d="M89.0002 21.7048C88.4864 23.3684 87.0484 27.0054 84.9414 27.0054C79.8045 26.9885 85.164 17.0383 86.1916 14.5682C86.5165 13.8823 88.8294 14.2428 88.8462 14.6538C88.7776 14.6538 83.3494 26.0277 85.1303 26.0627C86.5514 26.0627 87.8017 22.9055 88.2301 21.7048H89.0002Z" fill="black"/>
<path d="M60.248 36.8641C60.3218 36.7682 60.4007 36.7202 60.4848 36.7202C60.569 36.7202 60.6363 36.7513 60.6842 36.8136C60.732 36.8758 60.7359 36.9497 60.6971 37.034C60.5496 37.2661 60.3606 37.6162 60.1289 38.0829C59.8972 38.5497 59.7393 38.9763 59.6539 39.3614C59.6203 39.5027 59.6242 39.6389 59.6669 39.7685C59.7096 39.8982 59.8377 39.9721 60.0526 39.989C60.2674 40.0058 60.5897 39.9527 61.0194 39.8282C61.7882 39.5909 62.6048 39.2369 63.4694 38.7663C64.334 38.2969 65.117 37.8379 65.8172 37.3906C65.8845 37.3568 65.9518 37.3504 66.0165 37.3737C66.0812 37.397 66.1278 37.4359 66.1563 37.493C66.1783 37.5604 66.1718 37.6291 66.1356 37.6966C66.0994 37.764 66.0411 37.8236 65.9622 37.8755C65.2671 38.3112 64.5307 38.7416 63.7542 39.1669C62.9776 39.5909 62.2217 39.9488 61.4866 40.2366C60.9896 40.435 60.5146 40.5465 60.0629 40.5724C59.6112 40.5984 59.2889 40.4467 59.0961 40.1186C58.9887 39.8814 58.9913 39.5637 59.1052 39.1669C59.2178 38.7702 59.3886 38.3591 59.6177 37.9312C59.8468 37.5034 60.0564 37.1481 60.2493 36.8654L60.248 36.8641ZM61.0323 35.7815C60.9844 35.8178 60.9132 35.8152 60.8201 35.7724C60.7269 35.7296 60.688 35.6492 60.7062 35.5299C60.7282 35.4677 60.7968 35.3769 60.9094 35.2576C61.022 35.1383 61.1216 35.045 61.2057 34.9776C61.2963 34.9037 61.3856 34.8803 61.4724 34.905C61.5604 34.9309 61.6147 34.9853 61.638 35.0709C61.66 35.1565 61.616 35.2602 61.5021 35.3847C61.4064 35.4755 61.3041 35.5636 61.1967 35.6479C61.1346 35.6985 61.0789 35.7426 61.031 35.7802L61.0323 35.7815Z" fill="black" stroke="#151912" stroke-miterlimit="10"/>
<path d="M72.9135 37.5356C72.999 37.4786 73.0779 37.4682 73.1504 37.5019C73.2242 37.5356 73.2643 37.5991 73.2733 37.6925C73.2811 37.7859 73.2488 37.8636 73.1763 37.9259C72.2263 38.617 71.42 39.1719 70.756 39.5907C70.092 40.0095 69.4889 40.3246 68.9466 40.5334C68.7434 40.6241 68.5325 40.676 68.315 40.6903C68.0976 40.7045 67.9035 40.6553 67.7339 40.5412C67.5191 40.3998 67.3909 40.1664 67.3482 39.841C67.3055 39.5155 67.3482 38.9645 67.4802 38.1891C66.9716 38.8802 66.5613 39.4014 66.2507 39.7515C65.9401 40.1029 65.6294 40.3778 65.3175 40.5749C65.0069 40.7732 64.7209 40.8329 64.4607 40.7538C64.1216 40.606 63.9767 40.3467 64.0245 39.9719C64.0724 39.5985 64.2433 39.1966 64.5371 38.7661C64.7519 38.4432 65.0185 38.1269 65.3382 37.8144C65.6579 37.5032 65.997 37.2711 66.3555 37.1181C66.714 36.9651 67.1165 36.9599 67.5631 37.1012C67.6252 37.0105 67.6614 36.9599 67.6731 36.9482C67.73 36.8575 67.9047 36.5917 68.1985 36.1495C68.5376 35.3171 68.9803 34.3978 69.5252 33.389C70.07 32.3816 70.6201 31.5323 71.174 30.8412C71.2595 30.7452 71.341 30.6973 71.42 30.6973C71.4989 30.6973 71.5636 30.7258 71.6154 30.7815C71.6659 30.8386 71.6866 30.8982 71.6749 30.9605C71.5843 31.3456 71.354 31.8811 70.9838 32.5657C70.6136 33.2503 70.2189 33.9323 69.8008 34.6079C69.3828 35.2847 69.0515 35.8124 68.8094 36.1923C68.6114 36.6617 68.4276 37.1622 68.2581 37.6912C68.0885 38.2202 67.9785 38.7285 67.928 39.216C67.8776 39.6854 67.9798 39.981 68.2374 40.099C68.4949 40.217 69.1408 39.9629 70.1749 39.334C71.209 38.7051 72.1215 38.1048 72.9135 37.533V37.5356ZM66.1821 38.9787C66.5044 38.582 66.8719 38.0957 67.2835 37.5175C66.9043 37.5395 66.6182 37.6082 66.4228 37.721C66.2274 37.8338 66.0656 37.9453 65.9349 38.0517C65.6463 38.2954 65.3641 38.604 65.0871 38.9774C64.8102 39.3509 64.6432 39.7697 64.5875 40.2339C64.8813 40.1496 65.1208 40.0277 65.3046 39.8682C65.4884 39.71 65.6618 39.5428 65.8262 39.3677C65.9905 39.1927 66.1083 39.0617 66.1821 38.9774V38.9787Z" fill="black" stroke="#151912" stroke-miterlimit="10"/>
<path d="M78.9844 37.5186C79.0866 37.4615 79.172 37.4576 79.2432 37.5056C79.3144 37.5536 79.3507 37.6223 79.3532 37.7092C79.3558 37.7973 79.2924 37.8868 79.163 37.9763C78.666 38.2875 78.059 38.6453 77.3445 39.0512C76.6301 39.4557 75.9105 39.8162 75.187 40.1299C74.4635 40.4437 73.8397 40.633 73.3129 40.6953C72.7253 40.7355 72.3163 40.5734 72.0885 40.2116C71.8595 39.8499 71.8724 39.3572 72.1261 38.7335C72.3293 38.2862 72.6218 37.8933 73.0036 37.5536C73.3854 37.2139 73.7504 36.9973 74.1011 36.904C74.4519 36.8106 74.7146 36.8741 74.8893 37.0946C75.0188 37.3215 74.9929 37.5834 74.8091 37.8803C74.6253 38.1772 74.3432 38.4327 73.9613 38.6453C73.5795 38.858 73.1343 38.9293 72.6257 38.8619C72.4678 39.304 72.4432 39.6307 72.5532 39.8421C72.6632 40.0547 72.8962 40.1611 73.2521 40.1611C73.7439 40.1325 74.36 39.9549 75.1003 39.6256C75.8406 39.2975 76.5693 38.9293 77.2876 38.5208C78.0046 38.1137 78.5702 37.7792 78.9831 37.5186H78.9844ZM74.4363 37.4498C74.3548 37.3202 74.149 37.3552 73.8216 37.5562C73.4941 37.7571 73.155 38.0644 72.8043 38.4781C73.4087 38.4379 73.8526 38.29 74.1348 38.032C74.4169 37.774 74.5179 37.5808 74.4363 37.4498Z" fill="black" stroke="#151912" stroke-miterlimit="10"/>
<path d="M87.0297 37.4164C87.132 37.3593 87.2187 37.3541 87.2924 37.3995C87.3662 37.4449 87.4038 37.5175 87.4063 37.6161C87.4089 37.7146 87.3339 37.8209 87.1811 37.935C87.0621 38.0141 86.9443 38.0932 86.8252 38.1723C86.2324 38.5911 85.6216 38.9931 84.9938 39.3782C84.3661 39.7633 83.7591 40.0524 83.1715 40.2443C82.4597 40.4647 81.9057 40.4336 81.5097 40.1509C81.1136 39.8683 81.0683 39.172 81.3738 38.0621C80.2827 39.0592 79.4363 39.7477 78.8344 40.1302C78.2326 40.5127 77.7796 40.6099 77.4742 40.4232C77.2541 40.2482 77.1933 40.0044 77.2917 39.6932C77.39 39.3821 77.5505 39.0877 77.7706 38.8102C78.1148 38.385 78.5264 37.9947 79.004 37.6381C79.4816 37.2815 79.9449 37.0417 80.394 36.9211C80.8431 36.7992 81.2482 36.8861 81.6106 37.1804C81.8824 36.9431 82.0649 36.8601 82.162 36.934C82.2642 37.0183 82.2837 37.1376 82.2215 37.2906C81.973 37.9869 81.8268 38.5146 81.7854 38.8751C81.7427 39.2342 81.7918 39.4767 81.9342 39.6012C82.0753 39.7257 82.2707 39.7801 82.5192 39.762C83.0952 39.7114 83.7759 39.456 84.5628 38.997C85.3485 38.538 86.0525 38.0945 86.6738 37.664C86.8149 37.5681 86.9339 37.4851 87.0297 37.4177V37.4164ZM77.9168 39.9046L78.0605 39.8787C78.4902 39.7373 79.0027 39.4248 79.5993 38.9399C80.196 38.4563 80.7305 37.9908 81.2055 37.5435C80.7422 37.4358 80.2983 37.5007 79.875 37.7392C79.4518 37.9765 79.0493 38.276 78.6714 38.6352C78.2934 38.9944 78.0411 39.4184 77.9168 39.9046Z" fill="black" stroke="#151912" stroke-miterlimit="10"/>
</g>
<defs>
<clipPath id="clip0_2987_10125">
<rect width="89" height="50" fill="white"/>
</clipPath>
</defs>
</svg>
