<svg width="99" height="50" viewBox="0 0 99 50" fill="none" xmlns="http://www.w3.org/2000/svg">
<g clip-path="url(#clip0_2987_10171)">
<path d="M91.302 11.875H11.1523V42.1584H91.302V11.875Z" fill="url(#paint0_linear_2987_10171)"/>
<path d="M42.0527 33.7073V32.8432L42.0773 18.2644C42.0773 17.9039 42.1019 17.4966 42.2938 17.4966H45.3101C47.4161 17.4966 49.1407 19.0347 49.4039 20.9802C49.5958 22.1801 49.6426 23.5972 49.6426 24.9921C49.6426 26.1698 49.5958 27.3228 49.5712 28.4017C49.5712 28.6165 49.5466 28.8337 49.5466 29.051C49.3547 31.7174 47.9425 33.6135 45.2141 33.8061C44.5204 33.8308 43.0368 33.8308 42.2692 33.8308C42.0552 33.8555 42.0552 33.7839 42.0552 33.7098L42.0527 33.7073ZM43.8955 32.0976H44.1587C44.4687 32.0976 44.7565 32.1223 45.1157 32.0976C46.7912 32.0013 47.4849 30.4632 47.6768 28.9522C47.6768 28.6881 47.7014 28.2313 47.7014 27.9672C47.726 27.0314 47.7506 25.997 47.7506 24.9403C47.7506 23.691 47.6793 22.2739 47.5588 21.2172C47.2955 20.0173 46.4344 19.1507 45.3101 19.1507H43.9693L43.8979 32.0976H43.8955Z" fill="#CCCCCC"/>
<path d="M55.5774 26.2858C55.5774 26.3574 55.4814 26.4068 55.3634 26.4068H52.9941C52.9941 28.377 52.9695 30.2731 52.9695 32.2186H56.4877C56.6082 32.2186 56.7042 32.2655 56.7042 32.3396V33.7098C56.7042 33.7814 56.6082 33.8308 56.4877 33.8308H51.3187C51.176 33.8308 51.0801 33.7839 51.0801 33.7098V17.6176C51.0801 17.546 51.176 17.4966 51.3187 17.4966H56.4655C56.6082 17.4966 56.682 17.5435 56.682 17.6176V19.0347C56.682 19.1063 56.6107 19.1557 56.4655 19.1557H52.972V24.7749H55.3658C55.4864 24.7749 55.5799 24.8243 55.5799 24.8712V26.2883L55.5774 26.2858Z" fill="#CCCCCC"/>
<path d="M59.7881 29.6956C59.9307 29.6956 60.0267 29.745 60.0267 29.8166C60.0267 30.5128 60.0267 30.8017 60.0513 31.0165C60.1472 31.9769 60.7697 32.4336 61.4389 32.4336C62.1081 32.4336 62.7551 31.9053 62.851 30.8955C62.8978 30.1746 62.9224 28.9253 62.9224 28.2538C62.8732 27.1008 62.0121 26.765 61.2224 26.4293H61.247C59.7881 25.9478 58.4718 25.18 58.2553 23.2345V20.0398C58.3021 18.2152 59.9061 17.3018 61.4856 17.3018C63.0651 17.3018 64.5486 18.119 64.6692 19.7509V20.9286C64.6692 21.0002 64.5732 21.0495 64.4305 21.0495H62.9937C62.851 21.0495 62.7551 21.0002 62.7551 20.9286V19.9929C62.7551 19.2966 62.1573 18.9362 61.5102 18.9362C60.8632 18.9362 60.2407 19.3213 60.2186 20.1138C60.2186 22.4198 60.2186 22.8271 60.2432 23.1876C60.3637 24.1011 61.0575 24.6047 61.8473 24.9158H61.8227C63.2816 25.4195 64.743 25.9725 64.8143 28.1822C64.8143 28.5895 64.7897 29.071 64.7897 29.5524V30.8979C64.7897 32.7718 62.9716 33.947 61.247 33.947C59.7634 33.947 58.3513 33.1298 58.1594 31.1127C58.1348 30.8017 58.1594 30.4881 58.1594 29.8166C58.1594 29.745 58.2553 29.6956 58.398 29.6956H59.7856H59.7881Z" fill="#CCCCCC"/>
<path d="M66.4906 33.8283C66.3479 33.8283 66.252 33.7814 66.252 33.7074L66.2766 25.5896L66.3012 17.6151C66.3012 17.5435 66.3971 17.4941 66.5398 17.4941H67.9052C68.0479 17.4941 68.1439 17.541 68.1439 17.6151L68.0971 25.5896V33.7074C68.0971 33.779 68.0012 33.8283 67.8585 33.8283H66.4931H66.4906Z" fill="#CCCCCC"/>
<path d="M71.9715 26.3109C71.9715 26.2393 72.0675 26.1899 72.2102 26.1899C76.2302 26.2368 76.3754 26.2146 76.3754 26.2146C76.5181 26.1899 76.6386 26.2615 76.6386 26.3356L76.614 29.7698C76.5648 32.4831 74.7959 33.8781 73.0245 33.8781C71.2531 33.8781 69.6269 32.5325 69.6023 29.8192C69.5777 28.5699 69.6515 23.2149 69.7942 20.4744C69.9369 18.5043 71.5902 17.376 73.2164 17.376C74.7245 17.376 76.2327 18.2179 76.5919 20.0177C76.6878 20.4744 76.7124 21.0028 76.6878 21.6496C76.6878 21.7212 76.5673 21.7706 76.4738 21.7706H75.037C74.8943 21.7706 74.7984 21.7237 74.7984 21.6496C74.823 20.9781 74.7738 20.4967 74.6311 20.0646H74.6557C74.3924 19.3437 73.8659 19.0079 73.2927 19.0079C72.5989 19.0079 71.8313 19.5832 71.76 20.546C71.5435 22.6347 71.5213 25.5653 71.5213 27.9428V29.7673C71.4967 31.5449 72.2397 32.3844 73.0294 32.3844C73.8192 32.3844 74.6557 31.5449 74.7516 29.8389V27.8465H72.2151C72.0724 27.8465 71.9765 27.7996 71.9765 27.7256V26.3084L71.9715 26.3109Z" fill="#CCCCCC"/>
<path d="M83.6028 33.8284C83.5068 33.8284 83.4109 33.8037 83.3888 33.7568L80.0625 23.7158V33.7074C80.0625 33.779 79.9666 33.8284 79.8239 33.8284H78.3871C78.2444 33.8284 78.1484 33.7814 78.1484 33.7074L78.1952 17.6151C78.1952 17.5435 78.2911 17.4942 78.4338 17.4942H79.8214C79.9174 17.4942 80.0133 17.5189 80.0354 17.5658L83.4109 27.7253L83.5782 17.6127C83.5782 17.5411 83.6987 17.4917 83.8168 17.4917H85.229C85.3496 17.4917 85.443 17.5386 85.443 17.6127L85.2511 33.7049C85.2511 33.7765 85.1552 33.8259 85.0371 33.8259H83.6003L83.6028 33.8284Z" fill="#CCCCCC"/>
<path d="M21.2277 22.8445C21.9781 23.6098 24.2169 23.3704 25.0337 23.284C26.2343 21.5187 26.7559 20.7509 27.8704 19.2448C25.1247 19.5238 23.9118 19.3041 23.2058 19.1856C13.446 25.859 3.32948 29.9771 0.00569995 25.4788C-0.0361241 25.4146 0.283707 25.1776 0.391957 25.306C3.41559 29.4167 13.291 25.4368 22.8367 19.0226C19.7024 17.7117 18.086 16.5241 18.4944 13.317C19.5449 6.34242 40.393 -4.97745 39.9649 2.40454C39.7509 5.84864 32.8868 12.5418 24.8443 18.0943C25.3265 18.2079 26.1703 18.1808 28.8938 17.8795C29.6442 16.8673 30.3306 16.0279 30.8448 15.4699C31.6173 14.5885 32.9901 14.9539 32.6039 15.4921C32.1536 15.9884 31.5533 16.7611 30.8891 17.645C36.0826 17.0031 40.5086 17.2253 39.463 18.7387C39.4015 18.8276 39.2563 18.8103 39.2342 18.7042C39.0644 17.8573 34.3113 18.519 29.841 19.0523C28.7684 20.4719 28.3132 21.1533 27.0905 22.8544C28.4633 22.489 29.7475 22.247 30.2396 23.0667C30.6677 23.7777 30.0255 24.6172 29.317 24.3579C29.2309 24.316 29.2087 24.2295 29.2309 24.1431C29.2727 24.0567 29.3588 24.0345 29.4449 24.0567C29.9394 24.2493 30.2174 23.6469 30.0034 23.2815C29.5089 22.4198 27.9983 23.4123 26.4754 23.8C24.6524 26.4046 23.314 28.3007 22.758 29.1599C21.2351 31.4856 19.9705 33.9594 21.363 34.2187C21.491 34.2187 21.427 34.6063 21.2769 34.6063C19.7762 34.6063 19.4539 32.1967 20.9768 29.5278C21.5549 28.4933 22.785 26.6416 24.5023 24.1012C23.8577 24.1234 21.3606 24.2814 21.2253 22.8445H21.2277ZM18.9594 12.9615C18.4452 16.0822 21.2351 17.6055 24.367 18.0376C32.3037 12.6554 38.4568 5.92518 38.8873 2.28603C39.6155 -3.97755 20.3986 6.44117 18.9618 12.9615H18.9594Z" fill="black"/>
<path d="M35.1579 26.6392C35.2858 26.5306 35.458 26.7034 35.3941 26.7898C33.0568 29.8043 28.5743 35.0334 26.9013 35.0557C25.4006 35.0779 25.0783 32.646 26.6012 29.9772C30.3334 23.2618 40.8435 12.8875 43.8032 14.8453C45.9706 16.2872 42.3664 23.9926 30.914 26.1454C29.9053 27.3725 24.5444 34.431 26.9899 34.6681C28.1265 34.7545 32.737 29.8685 35.1628 26.6392H35.1579ZM43.6531 15.1441C42.3024 13.7022 34.7298 21.1928 31.192 25.7331C42.3664 23.2791 45.1538 16.7365 43.6531 15.1441Z" fill="black"/>
<path d="M36.016 36.4108C38.0113 37.0996 40.0902 38.1316 42.1937 39.5537C42.2576 39.5957 42.0018 39.9191 41.8517 39.8129C39.7703 38.3933 37.7333 37.4033 35.7602 36.7145C29.7965 43.5805 20.4452 51.0933 14.2478 49.8021C7.29765 48.3603 18.5385 31.5076 34.6875 35.9837L35.4379 35.0579L36.2325 34.0036C36.791 33.3148 38.678 30.883 39.8368 28.7745C37.6053 31.4434 35.7183 33.0136 34.5596 33.0358C32.7365 33.0581 32.6726 29.4634 35.5043 26.2118C36.2768 25.3304 37.6496 25.6958 37.2634 26.234C33.1228 30.7966 33.8313 32.584 34.6457 32.6482C35.6101 32.7346 37.8833 30.7966 40.3928 27.6339C40.907 26.4488 40.9931 25.5674 40.1566 25.481C40.0287 25.481 40.0705 25.1156 40.2427 25.0934C41.7435 25.0712 42.0657 27.5031 40.5429 30.1719C39.7064 31.6779 38.5279 33.3568 37.1748 35.0579C36.8107 35.5097 36.4244 35.9615 36.016 36.4133V36.4108ZM34.4292 36.3022C18.8362 32.0187 8.17596 48.0985 14.1814 49.3453C19.1142 50.3131 28.3794 43.4916 34.4292 36.3022Z" fill="black"/>
</g>
<defs>
<linearGradient id="paint0_linear_2987_10171" x1="51.2247" y1="42.1584" x2="51.2247" y2="-76.578" gradientUnits="userSpaceOnUse">
<stop stop-color="#00ABFF"/>
<stop offset="1" stop-color="#000B7F"/>
</linearGradient>
<clipPath id="clip0_2987_10171">
<rect width="99" height="50" fill="white"/>
</clipPath>
</defs>
</svg>
