<svg width="103" height="103" viewBox="0 0 103 103" fill="none" xmlns="http://www.w3.org/2000/svg">
<path d="M0.000274658 3.0335L3 0L6.03836 3.0335H0.000274658Z" fill="#619829"/>
<path d="M100 96.8531L103 99.8871L100 103L100 96.8916L100 96.8531Z" fill="#619829"/>
<path fill-rule="evenodd" clip-rule="evenodd" d="M103 99.8871L100 96.8916L100 96.8531L103 99.8871Z" fill="#619829"/>
<path d="M38 0L103 65.5053V99.8871L100 96.8531L100 96.8916L6.03836 3.0335L3 0H38Z" fill="#70B12F"/>
<path d="M29.7421 14.6532L37.0216 7.53438L39.7215 10.2342C40.2746 10.7873 40.6415 11.3464 40.8222 11.9114C41.0052 12.4787 41.0174 13.03 40.8589 13.5651C40.7051 14.1003 40.3959 14.595 39.9315 15.0492C39.4647 15.5057 38.961 15.8035 38.4205 15.9426C37.8848 16.0818 37.3335 16.0531 36.7666 15.8565C36.2021 15.6576 35.6433 15.2816 35.0902 14.7285L33.1673 12.8055L34.2621 11.7349L36.0092 13.4821C36.3326 13.8055 36.6425 14.0263 36.9388 14.1445C37.2374 14.2604 37.5237 14.2818 37.7975 14.2087C38.076 14.1357 38.3443 13.9729 38.6026 13.7203C38.8609 13.4677 39.0309 13.2018 39.1126 12.9226C39.1967 12.6411 39.183 12.3509 39.0715 12.0519C38.9624 11.7507 38.745 11.4372 38.4192 11.1114L37.224 9.91616L31.0463 15.9574L29.7421 14.6532ZM36.76 15.1468L35.2438 20.1548L33.7884 18.6995L35.3362 13.7231L36.76 15.1468ZM38.3309 23.4529C37.7895 22.9115 37.4357 22.3327 37.2695 21.7166C37.1079 21.1004 37.1314 20.4818 37.3399 19.8607C37.5508 19.2373 37.9418 18.6463 38.5129 18.0878C39.0745 17.5386 39.6728 17.1621 40.3079 16.9582C40.9477 16.7544 41.5771 16.7276 42.1961 16.8779C42.8174 17.0258 43.3859 17.3576 43.9015 17.8732C44.2343 18.206 44.4938 18.5734 44.6801 18.9753C44.8711 19.3772 44.9678 19.8019 44.97 20.2493C44.9745 20.6992 44.8683 21.16 44.6512 21.6319C44.4364 22.1015 44.0897 22.5703 43.6111 23.0384L43.2165 23.4243L38.7906 18.9983L39.6579 18.1502L42.864 21.3563C43.1081 21.1129 43.2745 20.8458 43.3633 20.555C43.4545 20.2619 43.4632 19.9683 43.3895 19.6742C43.318 19.3825 43.1605 19.1148 42.9167 18.871C42.6566 18.6109 42.3641 18.4449 42.0393 18.3732C41.7168 18.2992 41.3974 18.3079 41.0811 18.3993C40.7695 18.4908 40.4905 18.6547 40.2441 18.8911L39.487 19.6314C39.1695 19.942 38.9544 20.2659 38.8417 20.6032C38.7314 20.9382 38.719 21.2679 38.8044 21.5923C38.8921 21.9144 39.0743 22.2137 39.3508 22.4903C39.536 22.6754 39.7296 22.8175 39.9317 22.9165C40.1362 23.0132 40.3457 23.0656 40.5601 23.0738C40.7745 23.082 40.9869 23.0389 41.1971 22.9445L42.2503 24.2648C41.8578 24.5004 41.4376 24.6285 40.9897 24.6493C40.5465 24.6702 40.0968 24.5814 39.6408 24.3831C39.187 24.1825 38.7504 23.8724 38.3309 23.4529ZM44.1639 29.2859C43.6249 28.7469 43.2817 28.167 43.1343 27.5462C42.9893 26.9278 43.0234 26.3081 43.2366 25.687C43.4545 25.066 43.8396 24.4855 44.3917 23.9456C44.9462 23.4033 45.541 23.0303 46.1761 22.8264C46.8135 22.6202 47.4429 22.5934 48.0642 22.746C48.6903 22.8987 49.267 23.2387 49.7943 23.766C50.2325 24.2042 50.5386 24.6721 50.7126 25.1694C50.8913 25.6668 50.9333 26.1612 50.8387 26.6524C50.7464 27.1413 50.5176 27.5921 50.1524 28.0049L48.936 26.7886C49.1499 26.4821 49.2519 26.1506 49.2421 25.794C49.237 25.4374 49.081 25.1056 48.7739 24.7985C48.5138 24.5384 48.2142 24.3794 47.8752 24.3216C47.5385 24.2615 47.1836 24.3049 46.8104 24.452C46.4395 24.6014 46.0705 24.8557 45.7032 25.2149C45.3311 25.5787 45.0651 25.9454 44.9052 26.3151C44.7476 26.6825 44.6938 27.0341 44.7437 27.3699C44.7984 27.7059 44.9582 28.0062 45.223 28.271C45.4105 28.4585 45.6136 28.5913 45.8324 28.6695C46.0558 28.7476 46.2866 28.7699 46.5249 28.7363C46.7631 28.7026 46.9993 28.6084 47.2335 28.4536L48.4498 29.6699C48.0331 30.0172 47.5782 30.2395 47.0851 30.337C46.5943 30.4321 46.0973 30.3944 45.5939 30.2238C45.0929 30.0509 44.6162 29.7382 44.1639 29.2859ZM49.8774 34.9994C49.3501 34.4721 49.0104 33.9004 48.8582 33.2842C48.7061 32.6681 48.7344 32.0472 48.9429 31.4214C49.1538 30.798 49.5412 30.2106 50.1052 29.6591C50.6691 29.1075 51.2687 28.7298 51.9038 28.526C52.5412 28.3244 53.1706 28.3023 53.7919 28.4596C54.4132 28.6169 54.9875 28.9592 55.5148 29.4865C56.0421 30.0138 56.3818 30.5855 56.5339 31.2016C56.686 31.8178 56.6554 32.4387 56.4422 33.0644C56.2313 33.6925 55.8439 34.2823 55.2799 34.8338C54.7159 35.3853 54.1164 35.7607 53.4813 35.9599C52.8486 36.1614 52.2216 36.1836 51.6003 36.0263C50.979 35.869 50.4047 35.5267 49.8774 34.9994ZM50.9152 33.9984C51.2011 34.2843 51.5196 34.4457 51.8705 34.4827C52.2238 34.5173 52.5824 34.4493 52.9463 34.2789C53.3125 34.1108 53.6615 33.8646 53.9933 33.5401C54.3274 33.2134 54.5815 32.8699 54.7555 32.5096C54.9343 32.1494 55.0082 31.7944 54.9771 31.4446C54.9461 31.0949 54.7876 30.7771 54.5017 30.4911C54.2087 30.1982 53.8844 30.0332 53.5288 29.9963C53.1754 29.9617 52.8145 30.0296 52.4459 30.2C52.082 30.3704 51.733 30.619 51.3989 30.9457C51.0671 31.2702 50.8131 31.6113 50.6367 31.9693C50.4626 32.3295 50.3911 32.6845 50.4221 33.0343C50.4579 33.3841 50.6223 33.7054 50.9152 33.9984ZM53.6515 38.5626L59.1112 33.2235L60.3275 34.4398L59.3998 35.3471L59.4631 35.4104C59.8884 35.217 60.3188 35.1646 60.7543 35.2533C61.1921 35.3396 61.5915 35.5632 61.9524 35.9242C62.318 36.2898 62.5362 36.686 62.6069 37.1129C62.6822 37.5398 62.6175 37.9554 62.4125 38.3598L62.4688 38.4161C62.8916 38.239 63.3349 38.2042 63.7986 38.3116C64.2669 38.4191 64.6968 38.6685 65.0882 39.0599C65.5851 39.5568 65.8317 40.1175 65.8283 40.7421C65.8248 41.3666 65.5185 41.9767 64.9095 42.5722L61.2449 46.156L59.9688 44.8799L63.4344 41.4908C63.7732 41.1594 63.9318 40.8282 63.9101 40.4971C63.8907 40.1638 63.7522 39.8682 63.4944 39.6104C63.1873 39.3033 62.85 39.1581 62.4822 39.1747C62.1192 39.1913 61.7837 39.3503 61.4756 39.6515L58.0704 42.9815L56.8224 41.7335L60.3414 38.2923C60.6234 38.0166 60.7641 37.712 60.7636 37.3788C60.7655 37.0478 60.6316 36.7476 60.3621 36.4781C60.1793 36.2953 59.9655 36.1752 59.7207 36.1179C59.4783 36.0583 59.2273 36.0674 58.9676 36.1452C58.7103 36.2207 58.4691 36.3685 58.244 36.5886L54.9241 39.8352L53.6515 38.5626ZM62.5359 47.447L67.9956 42.1079L69.2119 43.3243L68.2842 44.2315L68.3475 44.2948C68.7728 44.1014 69.2032 44.049 69.6387 44.1377C70.0765 44.224 70.4759 44.4476 70.8368 44.8086C71.2025 45.1742 71.4206 45.5704 71.4913 45.9973C71.5667 46.4242 71.5019 46.8399 71.297 47.2442L71.3532 47.3005C71.776 47.1234 72.2193 47.0886 72.683 47.196C73.1514 47.3035 73.5812 47.553 73.9726 47.9443C74.4695 48.4412 74.7162 49.0019 74.7127 49.6265C74.7092 50.251 74.4029 50.8611 73.7939 51.4566L70.1293 55.0404L68.8532 53.7643L72.3188 50.3752C72.6576 50.0438 72.8162 49.7126 72.7945 49.3815C72.7751 49.0482 72.6366 48.7526 72.3788 48.4948C72.0718 48.1878 71.7344 48.0425 71.3666 48.0591C71.0036 48.0758 70.6681 48.2347 70.36 48.5359L66.9548 51.8659L65.7068 50.6179L69.2258 47.1767C69.5078 46.901 69.6485 46.5964 69.648 46.2632C69.6499 45.9323 69.516 45.632 69.2465 45.3625C69.0637 45.1797 68.8499 45.0597 68.6051 45.0024C68.3627 44.9427 68.1117 44.9518 67.852 45.0296C67.5947 45.1051 67.3535 45.2529 67.1284 45.473L63.8085 48.7196L62.5359 47.447ZM73.7042 58.8262C73.1628 58.2848 72.809 57.706 72.6428 57.0898C72.4812 56.4737 72.5047 55.8551 72.7132 55.234C72.9241 54.6106 73.3151 54.0196 73.8862 53.4611C74.4478 52.9119 75.0461 52.5354 75.6812 52.3315C76.321 52.1277 76.9504 52.1009 77.5694 52.2512C78.1907 52.3991 78.7592 52.7309 79.2748 53.2465C79.6076 53.5793 79.8671 53.9467 80.0534 54.3485C80.2444 54.7505 80.341 55.1752 80.3433 55.6226C80.3478 56.0725 80.2416 56.5333 80.0245 57.0052C79.8097 57.4748 79.463 57.9436 78.9844 58.4117L78.5898 58.7975L74.1639 54.3716L75.0312 53.5235L78.2373 56.7295C78.4814 56.4862 78.6478 56.2191 78.7366 55.9283C78.8278 55.6352 78.8365 55.3416 78.7628 55.0475C78.6913 54.7558 78.5337 54.4881 78.29 54.2443C78.0299 53.9842 77.7374 53.8182 77.4126 53.7465C77.0901 53.6725 76.7707 53.6812 76.4544 53.7726C76.1428 53.8641 75.8638 54.028 75.6174 54.2644L74.8603 55.0047C74.5427 55.3153 74.3277 55.6392 74.215 55.9765C74.1047 56.3114 74.0923 56.6412 74.1777 56.9656C74.2654 57.2877 74.4476 57.587 74.7241 57.8636C74.9093 58.0487 75.1029 58.1908 75.305 58.2898C75.5095 58.3865 75.719 58.4389 75.9334 58.4471C76.1478 58.4553 76.3602 58.4122 76.5704 58.3178L77.6236 59.6381C77.2311 59.8737 76.8108 60.0018 76.363 60.0226C75.9198 60.0435 75.4701 59.9547 75.014 59.7564C74.5603 59.5558 74.1237 59.2457 73.7042 58.8262ZM81.7601 60.3438L78.5611 63.4722L77.2885 62.1996L82.7482 56.8605L83.9645 58.0768L83.0368 58.9841L83.1001 59.0473C83.53 58.8726 83.9709 58.8331 84.4228 58.9289C84.8771 59.027 85.3058 59.2776 85.7089 59.6807C86.0816 60.0533 86.3256 60.4567 86.441 60.8908C86.5588 61.3273 86.541 61.7711 86.3876 62.2224C86.2366 62.676 85.9419 63.1149 85.5036 63.5389L82.0273 66.9384L80.7547 65.6658L84.0319 62.461C84.3969 62.1041 84.5887 61.7311 84.6073 61.342C84.6283 60.9553 84.4748 60.5978 84.1467 60.2697C83.924 60.0471 83.6762 59.8977 83.4033 59.8216C83.135 59.7455 82.8593 59.7486 82.576 59.831C82.2951 59.9156 82.0231 60.0866 81.7601 60.3438ZM85.2288 70.3297C84.8046 69.9055 84.5351 69.4181 84.4204 68.8675C84.3056 68.3168 84.3607 67.7392 84.5856 67.1345C84.8105 66.5298 85.2227 65.9343 85.8222 65.348C86.4289 64.7548 87.0391 64.3527 87.6531 64.1417C88.2717 63.9307 88.8564 63.8897 89.4072 64.0186C89.9603 64.1452 90.4442 64.416 90.8591 64.8308C91.1755 65.1472 91.3811 65.4606 91.476 65.7711C91.5733 66.0793 91.6058 66.3673 91.5737 66.6351C91.5439 66.9006 91.4955 67.1311 91.4284 67.3265L91.4812 67.3792L94.2039 64.7166L95.48 65.9927L88.2004 73.1115L86.9489 71.86L87.8091 71.0188L87.7318 70.9415C87.5334 71.0056 87.2975 71.0486 87.024 71.0704C86.7529 71.0898 86.4633 71.0486 86.1551 70.9467C85.8469 70.8447 85.5382 70.6391 85.2288 70.3297ZM86.6396 69.6524C86.9091 69.922 87.2122 70.0798 87.549 70.126C87.8881 70.1698 88.2396 70.1112 88.6034 69.9501C88.9672 69.7889 89.3257 69.5358 89.6788 69.1905C90.0318 68.8452 90.2895 68.4959 90.4517 68.1425C90.6163 67.7916 90.6759 67.4505 90.6307 67.1193C90.5877 66.7904 90.4291 66.4889 90.1549 66.2147C89.8714 65.9311 89.56 65.7674 89.2209 65.7236C88.8818 65.6797 88.5326 65.7384 88.1735 65.8995C87.8144 66.0606 87.4654 66.3069 87.1265 66.6383C86.7853 66.972 86.5289 67.3178 86.3572 67.6757C86.1902 68.0337 86.1246 68.3829 86.1604 68.7234C86.201 69.0639 86.3607 69.3735 86.6396 69.6524Z" fill="white"/>
</svg>
