<svg width="83" height="83" viewBox="0 0 83 83" fill="none" xmlns="http://www.w3.org/2000/svg">
<path d="M83 3.0335L80.0003 0L76.9619 3.0335H83Z" fill="#E68900"/>
<path d="M2.99971 76.8534L0 79.8873L2.99951 83L2.99971 76.8918L2.99971 76.8534Z" fill="#E68900"/>
<path fill-rule="evenodd" clip-rule="evenodd" d="M0 79.8873L2.99971 76.8918L2.99971 76.8534L0 79.8873Z" fill="#E68900"/>
<path d="M45.0001 0.000341601L0 45.5056V79.8873L2.99971 76.8534L2.99971 76.8918L76.9619 3.0335L80.0003 0L45.0001 0.000341601Z" fill="#F79E1B"/>
<path d="M21.9485 36.6933C21.6121 36.4157 21.2375 36.3122 20.8246 36.383C20.414 36.4514 20.0154 36.6789 19.6287 37.0656C19.3568 37.3375 19.1642 37.6122 19.0508 37.8896C18.9374 38.1671 18.8986 38.4285 18.9345 38.6738C18.9705 38.9191 19.0765 39.1341 19.2526 39.3189C19.4009 39.4706 19.5635 39.5681 19.7403 39.6115C19.9196 39.6526 20.1072 39.6525 20.3032 39.6111C20.4968 39.5674 20.6918 39.499 20.8881 39.4058C21.0844 39.3126 21.2737 39.21 21.4562 39.0979L22.298 38.5936C22.6324 38.3857 22.9783 38.2109 23.3357 38.0691C23.6954 37.925 24.0559 37.8363 24.4174 37.8029C24.7811 37.7672 25.1363 37.8081 25.4829 37.9255C25.8295 38.0429 26.1569 38.2592 26.4651 38.5744C26.8822 39.0009 27.1417 39.4843 27.2436 40.0246C27.3431 40.5625 27.2782 41.1265 27.0488 41.7168C26.8195 42.3023 26.4166 42.8834 25.84 43.4599C25.2799 44.02 24.7079 44.4187 24.1239 44.6558C23.5423 44.8906 22.9709 44.9557 22.4099 44.8513C21.8511 44.7444 21.326 44.4587 20.8345 43.994L22.1177 42.7109C22.3844 42.9457 22.668 43.0793 22.9684 43.1116C23.2689 43.1439 23.5686 43.0925 23.8677 42.9575C24.1691 42.8202 24.4557 42.6155 24.7276 42.3437C25.0112 42.0601 25.2179 41.769 25.3477 41.4705C25.4776 41.1672 25.5282 40.8776 25.4994 40.6017C25.4683 40.3234 25.352 40.0788 25.1504 39.868C24.9627 39.6807 24.7547 39.5794 24.5264 39.564C24.2958 39.5462 24.0426 39.5931 23.767 39.7047C23.4914 39.8116 23.1923 39.9607 22.8696 40.1522L21.8419 40.758C21.0983 41.1969 20.4014 41.4322 19.751 41.464C19.1006 41.491 18.5205 41.2438 18.0107 40.7225C17.5913 40.2936 17.3388 39.8031 17.2533 39.2512C17.1702 38.6969 17.2409 38.1317 17.4655 37.5555C17.6878 36.977 18.0509 36.4358 18.5548 35.932C19.0657 35.421 19.6014 35.0635 20.1619 34.8592C20.7224 34.6502 21.268 34.5944 21.7989 34.6916C22.3274 34.7864 22.7956 35.0353 23.2035 35.4383L21.9485 36.6933ZM31.2318 38.0681C30.8897 38.4103 30.5212 38.6568 30.1265 38.8078C29.7319 38.9541 29.3355 38.9849 28.9374 38.9002C28.5417 38.8131 28.1689 38.5907 27.819 38.2329C27.5178 37.9248 27.3249 37.6138 27.2404 37.2999C27.1559 36.986 27.1519 36.6714 27.2282 36.356C27.3045 36.0406 27.4345 35.7302 27.6179 35.4249C27.8015 35.1148 28.0105 34.8143 28.2452 34.5234C28.5292 34.1739 28.7568 33.8876 28.9282 33.6647C29.0973 33.4394 29.1985 33.2538 29.232 33.1078C29.2654 32.9572 29.2219 32.8203 29.1014 32.697L29.0806 32.6757C28.8187 32.4079 28.5374 32.2791 28.2367 32.2892C27.936 32.2993 27.638 32.452 27.3427 32.7473C27.031 33.059 26.851 33.375 26.8026 33.6952C26.7565 34.0131 26.7934 34.2973 26.9132 34.5478L25.5581 35.5654C25.3274 35.1399 25.211 34.708 25.2088 34.2696C25.2042 33.8289 25.3034 33.397 25.5062 32.9739C25.7066 32.5485 25.9955 32.1471 26.3729 31.7698C26.633 31.5096 26.9221 31.2814 27.2401 31.0853C27.5582 30.8891 27.8934 30.7554 28.2457 30.6843C28.5957 30.6109 28.9533 30.6305 29.3186 30.7434C29.6862 30.8538 30.0473 31.0903 30.4018 31.4529L33.9751 35.1069L32.7517 36.3303L32.0183 35.5803L31.9761 35.6224C32.0471 35.8514 32.0772 36.1026 32.0663 36.3759C32.0555 36.6445 31.984 36.9246 31.8519 37.2161C31.7198 37.5029 31.5131 37.7869 31.2318 38.0681ZM30.6377 36.7922C30.8931 36.5367 31.0648 36.2643 31.1526 35.9749C31.2382 35.6831 31.2479 35.4016 31.1818 35.1302C31.1181 34.8564 30.9877 34.6189 30.7908 34.4174L30.1616 33.7741C30.1542 33.8471 30.1164 33.9459 30.0481 34.0704C29.9822 34.1926 29.901 34.3229 29.8047 34.4614C29.7084 34.5999 29.6109 34.7349 29.5123 34.8663C29.4137 34.9978 29.328 35.1116 29.2552 35.2078C29.0909 35.4237 28.9627 35.6363 28.8706 35.8455C28.7785 36.0547 28.7413 36.256 28.7588 36.4494C28.7741 36.6403 28.8628 36.8188 29.025 36.9847C29.2568 37.2216 29.5173 37.315 29.8065 37.2647C30.0958 37.2145 30.3729 37.057 30.6377 36.7922ZM29.4085 25.2751L36.5273 32.5547L35.2547 33.8273L28.1359 26.5477L29.4085 25.2751ZM40.3307 28.9622C39.7894 29.5036 39.2106 29.8574 38.5944 30.0236C37.9782 30.1851 37.3596 30.1617 36.7385 29.9532C36.1151 29.7423 35.5241 29.3513 34.9657 28.7802C34.4165 28.2186 34.0399 27.6203 33.8361 26.9852C33.6322 26.3454 33.6054 25.716 33.7557 25.097C33.9037 24.4756 34.2354 23.9072 34.751 23.3916C35.0838 23.0588 35.4512 22.7992 35.8531 22.6129C36.255 22.4219 36.6797 22.3253 37.1272 22.3231C37.577 22.3185 38.0379 22.4248 38.5097 22.6419C38.9793 22.8566 39.4481 23.2033 39.9162 23.682L40.3021 24.0765L35.8761 28.5025L35.028 27.6352L38.2341 24.4291C37.9907 24.185 37.7237 24.0186 37.4328 23.9297C37.1397 23.8385 36.8461 23.8298 36.552 23.9036C36.2603 23.975 35.9926 24.1326 35.7488 24.3764C35.4887 24.6365 35.3228 24.929 35.251 25.2538C35.177 25.5763 35.1857 25.8956 35.2772 26.212C35.3686 26.5236 35.5325 26.8026 35.7689 27.049L36.5093 27.8061C36.8198 28.1236 37.1437 28.3387 37.481 28.4514C37.816 28.5616 38.1457 28.5741 38.4701 28.4887C38.7922 28.4009 39.0915 28.2188 39.3681 27.9422C39.5532 27.7571 39.6953 27.5635 39.7943 27.3613C39.891 27.1568 39.9435 26.9474 39.9516 26.733C39.9598 26.5185 39.9167 26.3062 39.8224 26.0959L41.1427 25.0428C41.3782 25.4353 41.5064 25.8555 41.5272 26.3034C41.548 26.7466 41.4593 27.1962 41.2609 27.6523C41.0603 28.106 40.7502 28.5427 40.3307 28.9622ZM44.044 17.0936L43.009 18.3816C42.8604 18.296 42.694 18.242 42.51 18.2198C42.3284 18.1952 42.1383 18.2189 41.9398 18.2908C41.7413 18.3628 41.5437 18.4972 41.3468 18.694C41.082 18.9589 40.9161 19.2396 40.8492 19.5362C40.7846 19.8304 40.8439 20.0687 41.027 20.2512C41.1799 20.4123 41.3636 20.4841 41.5781 20.4664C41.795 20.4464 42.0718 20.3313 42.4085 20.1211L43.5242 19.3991C44.1441 18.9995 44.6964 18.7964 45.1812 18.7897C45.6683 18.7806 46.1042 18.9704 46.4889 19.3591C46.8226 19.705 47.0196 20.1079 47.08 20.5678C47.1403 21.023 47.0689 21.4975 46.8658 21.9913C46.6626 22.485 46.336 22.9569 45.886 23.4069C45.2251 24.0678 44.5564 24.46 43.8798 24.5835C43.201 24.7046 42.5772 24.5526 42.0086 24.1276L43.1314 22.7658C43.4286 22.956 43.7301 23.0225 44.0357 22.9653C44.3413 22.9081 44.6406 22.733 44.9336 22.44C45.2359 22.1377 45.417 21.8323 45.477 21.524C45.5394 21.2132 45.4802 20.9654 45.2994 20.7806C45.1465 20.6242 44.9604 20.5548 44.7412 20.5724C44.5244 20.5877 44.2651 20.6923 43.9634 20.8863L42.8512 21.6118C42.2266 22.0207 41.6639 22.2203 41.1629 22.2104C40.6595 22.1982 40.2144 21.9918 39.8274 21.5914C39.496 21.2572 39.3012 20.8755 39.243 20.4463C39.1848 20.0123 39.2538 19.5638 39.4498 19.1006C39.6458 18.6327 39.9595 18.1831 40.3907 17.7519C41.0235 17.1191 41.6547 16.7574 42.2845 16.6666C42.9166 16.5735 43.5031 16.7158 44.044 17.0936Z" fill="white"/>
</svg>
