<svg width="24" height="24" viewBox="0 0 24 24" fill="none" xmlns="http://www.w3.org/2000/svg">
<path d="M2.52081 3.97913L4.42748 4.30913L5.31023 14.826C5.34414 15.2399 5.53284 15.6257 5.83867 15.9066C6.14451 16.1875 6.545 16.3427 6.96023 16.3413H16.9611C17.3586 16.3417 17.743 16.1986 18.0435 15.9382C18.344 15.6778 18.5403 15.3177 18.5964 14.9241L19.4672 8.91263C19.4904 8.75275 19.4819 8.58987 19.4421 8.43329C19.4023 8.27671 19.3321 8.12951 19.2354 8.00011C19.1387 7.8707 19.0174 7.76163 18.8785 7.67913C18.7396 7.59663 18.5858 7.54231 18.4259 7.51929C18.3672 7.51288 4.73365 7.50829 4.73365 7.50829" stroke-width="1.5" stroke-linecap="round" stroke-linejoin="round"/>
<path d="M12.9479 10.8954H15.4898" stroke-width="1.5" stroke-linecap="round" stroke-linejoin="round"/>
<path fill-rule="evenodd" clip-rule="evenodd" d="M6.5578 19.5194C6.62502 19.5165 6.69213 19.5272 6.75509 19.551C6.81805 19.5747 6.87556 19.611 6.92414 19.6575C6.97273 19.704 7.01139 19.7599 7.03781 19.8218C7.06422 19.8837 7.07784 19.9503 7.07784 20.0176C7.07784 20.0849 7.06422 20.1515 7.03781 20.2133C7.01139 20.2752 6.97273 20.3311 6.92414 20.3777C6.87556 20.4242 6.81805 20.4605 6.75509 20.4842C6.69213 20.5079 6.62502 20.5187 6.5578 20.5158C6.42936 20.5103 6.30801 20.4554 6.21908 20.3626C6.13015 20.2697 6.08051 20.1461 6.08051 20.0176C6.08051 19.889 6.13015 19.7654 6.21908 19.6726C6.30801 19.5798 6.42936 19.5249 6.5578 19.5194Z" stroke-width="1.5" stroke-linecap="round" stroke-linejoin="round"/>
<path fill-rule="evenodd" clip-rule="evenodd" d="M16.8988 19.5194C17.0312 19.5194 17.1583 19.572 17.252 19.6657C17.3457 19.7594 17.3983 19.8865 17.3983 20.019C17.3983 20.1515 17.3457 20.2786 17.252 20.3723C17.1583 20.4659 17.0312 20.5186 16.8988 20.5186C16.7663 20.5186 16.6392 20.4659 16.5455 20.3723C16.4518 20.2786 16.3992 20.1515 16.3992 20.019C16.3992 19.8865 16.4518 19.7594 16.5455 19.6657C16.6392 19.572 16.7663 19.5194 16.8988 19.5194Z" stroke-width="1.5" stroke-linecap="round" stroke-linejoin="round"/>
</svg>
