<svg width="22" height="22" viewBox="0 0 22 22" fill="none" xmlns="http://www.w3.org/2000/svg">
<g opacity="0.5">
<path d="M15.5835 2.75011C15.8243 2.50936 16.1101 2.31838 16.4246 2.18808C16.7392 2.05779 17.0763 1.99072 17.4168 1.99072C17.7573 1.99072 18.0945 2.05779 18.409 2.18808C18.7236 2.31838 19.0094 2.50936 19.2502 2.75011C19.4909 2.99087 19.6819 3.27669 19.8122 3.59125C19.9425 3.90582 20.0096 4.24297 20.0096 4.58345C20.0096 4.92393 19.9425 5.26108 19.8122 5.57564C19.6819 5.8902 19.4909 6.17602 19.2502 6.41678L6.87516 18.7918L1.8335 20.1668L3.2085 15.1251L15.5835 2.75011Z" stroke="#484949" stroke-width="1.5" stroke-linecap="round" stroke-linejoin="round"/>
</g>
</svg>
