<svg width="24" height="24" viewBox="0 0 24 24" fill="none" xmlns="http://www.w3.org/2000/svg">
<path d="M23.761 7.20011C23.761 7.20011 23.5265 5.54511 22.8045 4.81911C21.8905 3.86261 20.8685 3.85811 20.4 3.80161C17.044 3.55811 12.005 3.55811 12.005 3.55811H11.995C11.995 3.55811 6.9565 3.55811 3.6 3.80161C3.131 3.85811 2.1095 3.86261 1.195 4.81911C0.474 5.54511 0.244 7.20011 0.244 7.20011C0.244 7.20011 0 9.14511 0 11.0861V12.9046C0 14.8456 0.239 16.7906 0.239 16.7906C0.239 16.7906 0.4735 18.4456 1.1905 19.1721C2.1045 20.1281 3.3045 20.0956 3.839 20.1986C5.761 20.3816 12 20.4376 12 20.4376C12 20.4376 17.0435 20.4281 20.4 20.1891C20.869 20.1331 21.8905 20.1281 22.805 19.1721C23.5265 18.4456 23.761 16.7906 23.761 16.7906C23.761 16.7906 24 14.8506 24 12.9051V11.0866C24 9.14611 23.761 7.20061 23.761 7.20061V7.20011ZM9.52 15.1126V8.36761L16.0025 11.7516L9.52 15.1126Z" fill="#FF0000"/>
</svg>
