<svg width="83" height="83" viewBox="0 0 83 83" fill="none" xmlns="http://www.w3.org/2000/svg">
<path d="M83 3.0335L80.0003 0L76.9619 3.0335H83Z" fill="#619829"/>
<path d="M2.99971 76.8534L0 79.8873L2.99951 83L2.99971 76.8918L2.99971 76.8534Z" fill="#619829"/>
<path fill-rule="evenodd" clip-rule="evenodd" d="M0 79.8873L2.99971 76.8918L2.99971 76.8534L0 79.8873Z" fill="#619829"/>
<path d="M45.0001 0.000341601L0 45.5056V79.8873L2.99971 76.8534L2.99971 76.8918L76.9619 3.0335L80.0003 0L45.0001 0.000341601Z" fill="#70B12F"/>
<path d="M21.9953 31.7386L29.1141 39.0182L27.954 40.1783L19.7126 38.6122L19.6529 38.6719L24.5019 43.6304L23.1976 44.9347L16.0788 37.6551L17.246 36.488L25.4873 38.0611L25.5506 37.9978L20.6981 33.0358L21.9953 31.7386ZM32.9738 35.3694C32.4324 35.9108 31.8536 36.2646 31.2374 36.4308C30.6213 36.5924 30.0026 36.5689 29.3815 36.3604C28.7581 36.1495 28.1672 35.7585 27.6087 35.1875C27.0595 34.6258 26.683 34.0275 26.4791 33.3924C26.2753 32.7526 26.2485 32.1232 26.3988 31.5042C26.5467 30.8829 26.8785 30.3144 27.3941 29.7988C27.7269 29.466 28.0942 29.2065 28.4961 29.0202C28.898 28.8292 29.3227 28.7326 29.7702 28.7303C30.22 28.7258 30.6809 28.8321 31.1528 29.0491C31.6224 29.2639 32.0912 29.6106 32.5593 30.0892L32.9451 30.4838L28.5192 34.9097L27.671 34.0424L30.8771 30.8364C30.6338 30.5923 30.3667 30.4258 30.0759 30.337C29.7827 30.2458 29.4891 30.2371 29.1951 30.3108C28.9034 30.3823 28.6356 30.5399 28.3919 30.7836C28.1318 31.0437 27.9658 31.3362 27.8941 31.661C27.82 31.9835 27.8287 32.3029 27.9202 32.6192C28.0117 32.9308 28.1756 33.2098 28.4119 33.4562L29.1523 34.2133C29.4628 34.5309 29.7867 34.7459 30.1241 34.8586C30.459 34.9689 30.7887 34.9813 31.1132 34.8959C31.4353 34.8082 31.7346 34.626 32.0111 34.3495C32.1963 34.1643 32.3384 33.9707 32.4374 33.7686C32.5341 33.5641 32.5865 33.3546 32.5947 33.1402C32.6029 32.9258 32.5598 32.7134 32.4654 32.5032L33.7857 31.45C34.0212 31.8425 34.1494 32.2628 34.1702 32.7107C34.191 33.1538 34.1023 33.6035 33.904 34.0596C33.7034 34.5133 33.3933 34.9499 32.9738 35.3694ZM37.4326 30.6997L30.5678 26.7658L31.865 25.4686L36.5682 28.3582L36.6174 28.309L33.8336 23.4999L35.1167 22.2168L39.8202 25.064L39.8729 25.0113L37.0748 20.2587L38.3756 18.958L42.1854 25.9469L40.8601 27.2722L36.2396 24.5951L36.1658 24.6689L38.7614 29.3709L37.4326 30.6997Z" fill="white"/>
</svg>
