<svg width="76" height="50" viewBox="0 0 76 50" fill="none" xmlns="http://www.w3.org/2000/svg">
<g clip-path="url(#clip0_2987_10145)">
<path d="M69.3084 10.5435H11.0812C8.66434 10.5435 6.70508 12.5023 6.70508 14.9186V26.801C6.70508 29.2173 8.66434 31.1761 11.0812 31.1761H69.3084C71.7253 31.1761 73.6845 29.2173 73.6845 26.801V14.9186C73.6845 12.5023 71.7253 10.5435 69.3084 10.5435Z" fill="url(#paint0_linear_2987_10145)"/>
<path d="M22.7388 0.143066H5.75311C5.49465 0.143066 5.28906 0.34861 5.28906 0.605051V5.64968C5.28906 5.90808 5.49465 6.11167 5.75311 6.11167H10.7969C11.0554 6.11167 11.261 6.31721 11.261 6.52276V38.4838C11.261 38.7403 11.4666 38.9458 11.7231 38.9458H16.7689C17.0253 38.9458 17.2309 38.7403 17.2309 38.4838V6.52471C17.2309 6.31917 17.4365 6.11363 17.695 6.11363H22.7388C22.9444 6.11363 23.152 5.90808 23.152 5.65164V0.605051C23.152 0.34861 22.9464 0.143066 22.7388 0.143066Z" fill="white"/>
<path d="M29.1021 12.5225H23.9212C23.2065 12.5225 22.627 13.1039 22.627 13.8164V20.9361C22.627 21.6506 23.2065 22.23 23.9212 22.23H27.6062C27.7178 22.23 27.8078 22.32 27.8078 22.4316V26.5601C27.8078 26.6717 27.7178 26.7618 27.6062 26.7618H25.4171C25.3055 26.7618 25.2154 26.6717 25.2154 26.5601V24.3735C25.2154 24.2619 25.1254 24.1719 25.0138 24.1719H22.8267C22.7151 24.1719 22.625 24.2619 22.625 24.3735V28.0557C22.625 28.7702 23.2046 29.3496 23.9192 29.3496H29.1001C29.8148 29.3496 30.3728 28.7683 30.3728 28.0557V20.9361C30.3728 20.2215 29.8148 19.6421 29.1001 19.6421H25.4152C25.3036 19.6421 25.2135 19.5521 25.2135 19.4405V15.2885C25.2135 15.2004 25.3036 15.1104 25.4152 15.1104H27.6042C27.7158 15.1104 27.8059 15.2004 27.8059 15.2885V17.477C27.8059 17.5886 27.8959 17.6787 28.0076 17.6787H30.1947C30.2847 17.6787 30.3728 17.5906 30.3728 17.477V13.8164C30.3728 13.1019 29.8148 12.5225 29.1001 12.5225H29.1021Z" fill="white"/>
<path d="M40.1751 12.5225H32.8071C32.6955 12.5225 32.6055 12.6125 32.6055 12.7241V14.9126C32.6055 15.0242 32.6955 15.1143 32.8071 15.1143H34.9942C35.1058 15.1143 35.1959 15.2043 35.1959 15.2924V29.1539C35.1959 29.2655 35.286 29.3555 35.3976 29.3555H37.5866C37.6982 29.3555 37.7883 29.2655 37.7883 29.1539V15.2924C37.7883 15.2043 37.8784 15.1143 37.99 15.1143H40.1771C40.2671 15.1143 40.3553 15.0262 40.3553 14.9126V12.7241C40.3553 12.6125 40.2652 12.5225 40.1771 12.5225H40.1751Z" fill="white"/>
<path d="M49.0611 12.5225H43.8802C43.1655 12.5225 42.5859 13.1039 42.5859 13.8164V28.0577C42.5859 28.7722 43.1655 29.3516 43.8802 29.3516H49.0611C49.7757 29.3516 50.3338 28.7702 50.3338 28.0577V13.8164C50.3338 13.1019 49.7757 12.5225 49.0611 12.5225ZM47.7668 26.5621C47.7668 26.6737 47.6768 26.7637 47.5651 26.7637H45.3761C45.2645 26.7637 45.1744 26.6737 45.1744 26.5621V15.2905C45.1744 15.2024 45.2645 15.1123 45.3761 15.1123H47.5651C47.6768 15.1123 47.7668 15.2024 47.7668 15.2905V26.5621Z" fill="white"/>
<path d="M59.0396 12.5225H52.7661C52.6545 12.5225 52.5645 12.6125 52.5645 12.7241V29.1519C52.5645 29.2635 52.6545 29.3536 52.7661 29.3536H54.9532C55.0648 29.3536 55.1549 29.2635 55.1549 29.1519V22.4336C55.1549 22.322 55.245 22.232 55.3566 22.232H55.4016C55.4917 22.232 55.5582 22.277 55.6033 22.3651L57.7023 29.2185C57.7238 29.285 57.7923 29.3516 57.8804 29.3516H60.046C60.1791 29.3516 60.2907 29.2185 60.2477 29.0834L58.2153 22.4767C58.1702 22.3651 58.2603 22.23 58.3934 22.23H59.0415C59.7562 22.23 60.3142 21.6486 60.3142 20.9361V13.8164C60.3142 13.1019 59.7562 12.5225 59.0415 12.5225H59.0396ZM57.7434 19.4424C57.7434 19.554 57.6533 19.6441 57.5417 19.6441H55.3527C55.2411 19.6441 55.151 19.554 55.151 19.4424V15.2905C55.151 15.2024 55.2411 15.1123 55.3527 15.1123H57.5417C57.6533 15.1123 57.7434 15.2024 57.7434 15.2905V19.4424Z" fill="white"/>
<path d="M65.3351 15.1104H70.1126C70.2027 15.1104 70.2908 15.0223 70.2908 14.9087V12.7202C70.2908 12.6086 70.2007 12.5186 70.1126 12.5186H62.7446C62.633 12.5186 62.543 12.6086 62.543 12.7202V29.148C62.543 29.2596 62.633 29.3497 62.7446 29.3497H70.1126C70.2027 29.3497 70.2908 29.2596 70.2908 29.148V26.9595C70.2908 26.8479 70.2007 26.7578 70.1126 26.7578H65.3351C65.2235 26.7578 65.1334 26.6678 65.1334 26.5562V22.4277C65.1334 22.3161 65.2235 22.2261 65.3351 22.2261H68.8184C68.93 22.2261 69.0201 22.138 69.0201 22.0245V19.8359C69.0201 19.7243 68.93 19.6343 68.8184 19.6343H65.3351C65.2235 19.6343 65.1334 19.5442 65.1334 19.4327V15.2807C65.1334 15.1926 65.2235 15.1025 65.3351 15.1025V15.1104Z" fill="white"/>
<path d="M30.4297 3.56858H32.6324V8.93817H34.24V3.56858H36.3566V1.96143H30.4297V3.56858Z" fill="black"/>
<path d="M40.9255 4.87036H38.7286V1.96338H37.1211V8.93817H38.7286V6.47947H40.9255V8.93817H42.533V1.96338H40.9255V4.87036Z" fill="black"/>
<path d="M48.3289 3.78576V2.01025H43.3047V2.02396H43.3008L43.3047 8.93806H48.3289V7.21541H44.9083V6.40106H47.5673V4.7939H44.9083V3.78576H48.3289Z" fill="black"/>
<mask id="mask0_2987_10145" style="mask-type:luminance" maskUnits="userSpaceOnUse" x="4" y="0" width="20" height="40">
<path d="M16.7677 39.4703H11.7219C11.2834 39.4703 10.927 39.114 10.927 38.6755V6.71443C10.9231 6.69681 10.8761 6.63613 10.7958 6.63613H5.75199C5.31339 6.63613 4.95508 6.27985 4.95508 5.84136V0.794769C4.95508 0.356276 5.31144 0 5.75199 0H22.7396C23.143 0 23.4837 0.364106 23.4837 0.794769V5.8394C23.4837 6.27006 23.143 6.63417 22.7396 6.63417H17.6958C17.6155 6.63417 17.5686 6.69681 17.5646 6.71639V38.6755C17.5646 39.114 17.2083 39.4703 16.7697 39.4703H16.7677ZM5.75199 0.66557C5.67758 0.66557 5.6208 0.72234 5.6208 0.796727V5.84136C5.6208 5.91575 5.67758 5.97252 5.75199 5.97252H10.7958C11.2266 5.97252 11.5927 6.31313 11.5927 6.71639V38.6775C11.5927 38.7499 11.6495 38.8086 11.7239 38.8086H16.7697C16.8421 38.8086 16.9009 38.7519 16.9009 38.6775V6.71443C16.9009 6.31117 17.2651 5.97056 17.6978 5.97056H22.7416C22.7612 5.96664 22.8219 5.9177 22.8219 5.8394V0.794769C22.8219 0.718424 22.7631 0.667528 22.7416 0.663613H5.75199V0.66557Z" fill="white"/>
</mask>
<g mask="url(#mask0_2987_10145)">
<path d="M4.69878 58.7206H23.7012C25.3342 58.7206 26.6578 56.9843 26.6578 54.8408V0.770997C26.6578 -1.37253 25.3342 -3.10889 23.7012 -3.10889H4.69878C3.0658 -3.10889 1.74219 -1.37253 1.74219 0.770997V54.8408C1.74219 56.9843 3.0658 58.7206 4.69878 58.7206Z" fill="url(#paint1_linear_2987_10145)"/>
</g>
<path d="M17.0914 25.7753C11.5816 26.1629 6.24409 37.1017 6.07374 37.1134C6.07374 36.9451 8.47425 30.6731 11.1861 25.7929C11.3271 25.5286 11.8636 24.5596 11.8636 24.3325C11.8636 24.1622 11.5522 23.8451 11.1293 23.8745C9.77241 23.9704 3.67127 33.8913 3.16218 41.0168L3.1054 41.5865C1.89144 42.3499 -0.00195312 43.6693 -0.00195312 45.1101C-0.00195312 46.5508 2.00304 47.3985 3.5577 47.2888C11.4113 46.7368 20.5356 36.2365 20.5356 29.7667C20.5356 26.9146 18.8399 25.65 17.0895 25.7713L17.0914 25.7753ZM2.65506 46.3101C1.83661 46.3668 1.10236 46.2787 1.10236 45.345C1.10236 44.2996 2.99575 42.8393 3.13673 42.8295C3.13673 42.8295 3.13673 44.8634 3.47547 45.2334C3.61644 45.3939 3.92776 45.5133 4.09811 45.5016C4.21168 45.4938 4.18426 45.4389 4.18426 44.93C4.21168 44.2213 4.12748 44.5678 4.523 43.4951C4.94789 42.2501 5.05949 42.1013 5.22984 41.6374C5.62536 40.6214 13.0266 38.4622 13.195 38.3095V38.2821C13.195 38.2547 13.195 38.2253 13.1382 38.1725C13.0247 38.0687 12.9972 38.0707 12.8269 38.0824C10.7651 38.2273 5.96213 40.2592 5.82116 40.269C5.82116 39.9304 12.1494 26.942 17.5437 26.5642C18.8164 26.4741 19.0984 27.8953 19.0984 28.7155C19.0984 34.2534 9.35144 45.8422 2.65702 46.312L2.65506 46.3101Z" fill="black"/>
<path d="M42.4898 29.9506C43.365 29.888 43.9583 28.9718 43.9583 28.547C43.9583 28.2925 43.4492 27.9617 43.0263 27.9911C42.4898 28.0283 41.8965 29.0305 41.8965 29.5395C41.8965 29.7098 42.292 29.9643 42.4898 29.9506Z" fill="black"/>
<path d="M75.4586 30.1779C75.0357 30.7163 71.1647 34.9152 70.6282 34.9524V34.925C70.6282 34.1048 72.9171 28.7176 72.9171 27.3904C72.9171 26.345 72.1261 25.8087 71.476 25.8537C69.1304 26.0181 64.4703 31.5443 63.0292 33.4529C60.6287 36.6164 58.9624 39.4724 58.3398 39.5175C58.3398 39.5175 58.3124 39.4059 58.3124 39.2943C58.3124 36.5537 61.8701 31.2194 63.5383 28.9545C63.9632 28.3594 64.1883 28.0051 64.1883 27.9209C64.1883 27.6664 63.736 27.4158 63.3973 27.4393C62.5045 27.502 59.4715 30.7182 57.9188 34.2007C56.9281 34.7469 55.1463 35.7452 55.1463 35.7041C55.1463 35.7041 55.4008 34.4728 55.4008 33.4843C55.4008 32.1277 54.7233 30.452 53.48 30.5401C51.3615 30.6889 47.2927 38.4036 44.8354 38.5778C44.6377 38.5915 44.6377 38.1667 44.6377 38.0258C44.6377 35.8784 48.677 29.945 51.0501 29.6083C51.3615 29.5868 51.2479 29.5378 51.475 29.7199C51.8412 30.0605 52.0115 30.869 52.266 30.8513C52.4364 30.8396 52.4638 30.4128 52.4638 30.2719C52.4638 29.1698 51.0227 28.5355 50.1749 28.5962C47.6021 28.7763 44.434 32.2921 43.4198 35.3087C42.4643 36.1818 41.4089 36.8982 40.1754 37.4072C40.3457 36.2934 41.3051 34.3612 41.8142 33.3374C42.2097 32.6034 42.3233 32.3136 42.3233 32.1433C42.3233 31.9182 41.9278 31.5482 41.3913 31.5874C40.4828 31.65 39.3452 33.4197 38.8635 34.9955C37.4616 35.8216 35.5094 37.1195 34.9769 37.4601C33.2264 37.2721 31.5308 37.9573 29.8645 38.0728C29.5825 38.0924 29.5532 38.1237 29.5532 37.7557C29.5532 35.6082 33.3674 30.5949 35.6269 30.4344C35.9656 30.4109 36.1634 31.6402 36.2202 31.975C36.277 32.253 36.3338 32.5603 36.3612 32.6151C36.4179 32.6954 36.5589 32.7991 36.6725 32.7913C36.8702 32.7776 37.209 31.9065 37.209 31.1724C37.209 29.759 35.6837 29.1032 34.3562 29.1972C31.4779 29.3988 28.0631 33.4627 27.928 36.5752C26.5202 37.8731 24.8128 38.9928 23.3091 39.0985C22.4065 39.1612 21.9542 39.0242 21.9542 38.1765C21.9542 37.6402 22.2087 36.9159 22.2361 36.9139C22.2361 36.9139 22.6884 36.9668 22.9136 36.9511C24.2411 36.8571 26.1619 35.3948 26.1619 34.0676C26.1619 33.0516 25.1731 32.2999 24.1843 32.3704C22.4319 32.4937 19.9746 35.0112 19.9746 37.2702C19.9746 39.2767 22.2341 40.0773 23.4775 39.9912C24.946 39.8874 26.5907 38.7051 27.9868 37.3524C28.257 38.4604 29.2986 39.0163 30.5126 38.9322C31.1901 38.8852 33.3948 38.2783 33.7609 38.2529H33.7883C33.7883 38.2529 29.4944 41.1501 29.4944 42.4793C29.4944 43.045 30.4558 43.4854 31.4152 43.4189C33.9293 43.2427 36.2456 40.7351 36.2456 39.0124C36.2456 38.3057 35.8208 37.9123 35.8208 37.9123C35.8208 37.832 37.3363 36.8043 38.6579 35.8901C38.654 35.9136 38.6501 35.939 38.6462 35.9606C38.5326 37.1547 38.9849 37.83 39.9169 38.1315C40.1147 38.2039 40.2008 38.2255 40.5102 38.2039C40.7686 38.1863 41.822 37.5501 43.1554 36.3306C43.1104 36.5929 43.081 36.8493 43.081 37.092C43.081 38.5602 44.2402 39.4685 45.229 39.3981C47.6589 39.2277 51.9802 31.3525 53.5916 31.2389C53.7894 31.2252 53.7894 31.8458 53.7894 32.0729C53.7894 33.3159 53.5348 34.1812 52.2935 37.3485L51.0208 38.0884C46.5017 40.694 40.3986 45.3314 40.3986 48.1562C40.3986 49.5402 42.3194 50.0844 43.5627 49.9963C49.2683 49.595 53.5916 42.3129 54.9759 36.5381C55.8218 35.9919 56.652 35.479 57.631 34.9054C57.2374 35.939 56.9829 36.9785 56.9829 37.9514C56.9829 39.2219 57.2668 39.8522 58.001 40.1674C58.1714 40.2124 58.3124 40.2594 58.4808 40.2476C60.147 40.1302 64.809 30.1701 70.4579 26.948C70.826 26.7542 71.3625 26.4899 71.4741 26.4821C71.4741 26.4821 71.5015 26.5075 71.5015 26.5369C71.5015 26.6504 71.3331 27.0556 71.0492 27.6135C70.0604 29.575 69.1852 31.4738 69.1852 33.6193C69.1852 34.0422 69.2126 34.465 69.2987 34.6842C69.4965 35.3772 70.1172 35.7276 70.5989 35.6943C71.7854 35.6121 75.1473 31.421 75.9109 30.4344C76.1655 30.1055 75.8248 29.6768 75.4586 30.1838V30.1779ZM22.9684 35.25C23.7027 33.9834 24.8324 33.2826 24.9734 33.2728C25.0596 33.3805 25.1418 33.7133 25.1418 33.9384C25.1418 34.6725 24.153 35.7041 22.9664 36.1818C22.8822 36.217 22.4299 36.3893 22.4299 36.3051C22.4299 36.2483 22.7981 35.5162 22.9664 35.25H22.9684ZM30.6242 42.7357C30.4558 42.7474 30.3129 42.7572 30.3129 42.673C30.3129 41.8528 34.9749 38.4173 35.1433 38.4075C35.3136 39.214 33.3635 42.5438 30.6222 42.7357H30.6242ZM42.292 49.0625C41.5009 49.1173 41.1896 48.7728 41.1896 48.1777C41.1896 44.6756 51.8118 38.1374 51.8118 38.4193C51.8118 38.5602 47.1224 48.7219 42.292 49.0606V49.0625Z" fill="black"/>
</g>
<defs>
<linearGradient id="paint0_linear_2987_10145" x1="6.70508" y1="20.8598" x2="73.6845" y2="20.8598" gradientUnits="userSpaceOnUse">
<stop stop-color="#29ABE2"/>
<stop offset="1" stop-color="#FF00FF"/>
</linearGradient>
<linearGradient id="paint1_linear_2987_10145" x1="14.201" y1="58.7206" x2="14.201" y2="-3.10889" gradientUnits="userSpaceOnUse">
<stop stop-color="#29ABE2"/>
<stop offset="1" stop-color="#FF00FF"/>
</linearGradient>
<clipPath id="clip0_2987_10145">
<rect width="76" height="50" fill="white"/>
</clipPath>
</defs>
</svg>
