<svg width="39" height="21" viewBox="0 0 39 21" fill="none" xmlns="http://www.w3.org/2000/svg">
<path d="M7.12597 5.18365C6.66894 5.75569 5.93754 6.20704 5.20621 6.1425C5.1148 5.36904 5.47281 4.54708 5.89183 4.03942C6.34886 3.45127 7.14882 3.03223 7.79636 3C7.87253 3.80577 7.57538 4.59542 7.12597 5.18365ZM7.78882 6.29566C6.72988 6.23121 5.82335 6.93216 5.32054 6.93216C4.81019 6.93216 4.0407 6.32789 3.20274 6.344C2.1134 6.36012 1.10017 7.01273 0.544035 8.05222C-0.598696 10.1311 0.246964 13.2093 1.35153 14.9014C1.89243 15.7394 2.53997 16.6579 3.39317 16.6257C4.20074 16.5935 4.52066 16.0698 5.49582 16.0698C6.47851 16.0698 6.76042 16.6257 7.61362 16.6096C8.49729 16.5935 9.05342 15.7717 9.59432 14.9336C10.2113 13.9828 10.4628 13.0561 10.478 13.0078C10.4628 12.9916 8.77159 12.3068 8.75635 10.2439C8.74112 8.5196 10.0895 7.69772 10.1504 7.64938C9.38858 6.4568 8.20022 6.32789 7.78882 6.29566ZM13.9062 3.95885V16.521H15.7497V12.2262H18.3018C20.6328 12.2262 22.2708 10.5341 22.2708 8.08453C22.2708 5.635 20.6633 3.95893 18.3627 3.95893L13.9062 3.95885ZM15.7497 5.60269H17.8751C19.475 5.60269 20.3891 6.50514 20.3891 8.09251C20.3891 9.67987 19.475 10.5905 17.8675 10.5905H15.7497V5.60269ZM25.6379 16.6176C26.7958 16.6176 27.8699 15.9973 28.3575 15.0142H28.3956V16.521H30.1021V10.2681C30.1021 8.45515 28.7308 7.28674 26.6206 7.28674C24.6627 7.28674 23.2153 8.47126 23.162 10.0989H24.8228C24.9599 9.32537 25.6378 8.81771 26.5672 8.81771C27.6947 8.81771 28.327 9.37371 28.327 10.3971V11.09L26.0263 11.235C23.8857 11.372 22.7278 12.2987 22.7278 13.9103C22.7278 15.5379 23.9238 16.6176 25.6379 16.6176ZM26.133 15.127C25.1504 15.127 24.5256 14.6274 24.5256 13.8619C24.5256 13.0723 25.1274 12.613 26.2778 12.5405L28.327 12.4035V13.1125C28.327 14.289 27.3824 15.127 26.1331 15.127M32.3799 19.9375C34.1778 19.9375 35.0234 19.2124 35.7623 17.0125L38.9999 7.40759H37.1259L34.9548 14.8288H34.9167L32.7455 7.40759H30.8182L33.9415 16.5532L33.7739 17.1092C33.4921 18.0519 33.035 18.4146 32.2199 18.4146C32.0752 18.4146 31.7933 18.3985 31.679 18.3823V19.8891C31.7856 19.9214 32.2427 19.9375 32.3798 19.9375" fill="black"/>
</svg>
