<svg width="24" height="24" viewBox="0 0 24 24" fill="none" xmlns="http://www.w3.org/2000/svg">
<g clip-path="url(#clip0_2401_5144)">
<path d="M24 12C24 5.3725 18.6275 0 12 0C5.3725 0 0 5.3725 0 12C0 17.9895 4.388 22.954 10.125 23.854V15.469H7.078V12H10.125V9.356C10.125 6.349 11.9165 4.6875 14.6575 4.6875C15.97 4.6875 17.3435 4.922 17.3435 4.922V7.875H15.8305C14.34 7.875 13.875 8.8 13.875 9.75V12H17.203L16.671 15.469H13.875V23.854C19.612 22.954 24 17.989 24 12Z" fill="#0863F7"/>
</g>
<defs>
<clipPath id="clip0_2401_5144">
<rect width="24" height="24" fill="white"/>
</clipPath>
</defs>
</svg>
