<svg width="27" height="21" viewBox="0 0 27 21" fill="none" xmlns="http://www.w3.org/2000/svg">
<g clip-path="url(#clip0_2401_5153)">
<path d="M4.90857 20.8956V19.5057C4.90857 18.9728 4.58436 18.6254 4.02865 18.6254C3.75084 18.6254 3.44984 18.718 3.24143 19.0192C3.07943 18.7644 2.84792 18.6254 2.50062 18.6254C2.26901 18.6254 2.03761 18.6948 1.8523 18.9497V18.6717H1.36609V20.8956H1.8523V19.6678C1.8523 19.2741 2.06071 19.0887 2.38492 19.0887C2.70892 19.0887 2.87113 19.2972 2.87113 19.6678V20.8956H3.35734V19.6678C3.35734 19.2741 3.58874 19.0887 3.88975 19.0887C4.21396 19.0887 4.37596 19.2972 4.37596 19.6678V20.8956H4.90857ZM12.109 18.6717H11.3219V17.9999H10.8357V18.6717H10.3958V19.1118H10.8356V20.1312C10.8356 20.6409 11.044 20.9419 11.5997 20.9419C11.8081 20.9419 12.0395 20.8725 12.2017 20.7798L12.0627 20.3628C11.9238 20.4554 11.7618 20.4787 11.646 20.4787C11.4145 20.4787 11.3219 20.3397 11.3219 20.1079V19.1118H12.109V18.6717ZM16.2303 18.6253C15.9525 18.6253 15.7673 18.7644 15.6515 18.9497V18.6717H15.1653V20.8956H15.6515V19.6447C15.6515 19.2741 15.8135 19.0655 16.1145 19.0655C16.2071 19.0655 16.3229 19.0888 16.4155 19.1119L16.5544 18.6486C16.4618 18.6254 16.3229 18.6254 16.2303 18.6254M10.0022 18.8571C9.77058 18.6949 9.44647 18.6255 9.09916 18.6255C8.54355 18.6255 8.17315 18.9034 8.17315 19.3436C8.17315 19.7143 8.45095 19.9227 8.93716 19.9923L9.16867 20.0155C9.42337 20.0617 9.56228 20.1313 9.56228 20.2471C9.56228 20.4092 9.37707 20.5251 9.05286 20.5251C8.72876 20.5251 8.47405 20.4092 8.31194 20.2935L8.08044 20.6641C8.33515 20.8494 8.68246 20.942 9.02966 20.942C9.67798 20.942 10.0485 20.641 10.0485 20.2239C10.0485 19.8301 9.74748 19.6216 9.28437 19.5521L9.05286 19.5289C8.84446 19.5057 8.68246 19.4595 8.68246 19.3205C8.68246 19.1583 8.84446 19.0656 9.09916 19.0656C9.37707 19.0656 9.65488 19.1814 9.79378 19.251L10.0022 18.8571ZM22.9216 18.6255C22.6437 18.6255 22.4585 18.7645 22.3427 18.9498V18.6718H21.8565V20.8957H22.3427V19.6448C22.3427 19.2742 22.5048 19.0656 22.8057 19.0656C22.8984 19.0656 23.0142 19.0889 23.1068 19.112L23.2457 18.6487C23.1531 18.6255 23.0142 18.6255 22.9216 18.6255ZM16.7165 19.7838C16.7165 20.4556 17.1795 20.942 17.8974 20.942C18.2215 20.942 18.453 20.8726 18.6845 20.6873L18.453 20.2935C18.2678 20.4324 18.0826 20.5019 17.8742 20.5019C17.4806 20.5019 17.2027 20.2239 17.2027 19.7838C17.2027 19.3668 17.4806 19.0888 17.8742 19.0656C18.0826 19.0656 18.2678 19.1351 18.453 19.2742L18.6845 18.8803C18.453 18.6949 18.2215 18.6255 17.8974 18.6255C17.1795 18.6255 16.7165 19.112 16.7165 19.7838ZM21.2082 19.7838V18.6718H20.722V18.9498C20.5599 18.7414 20.3284 18.6255 20.0274 18.6255C19.4023 18.6255 18.9161 19.112 18.9161 19.7838C18.9161 20.4556 19.4023 20.942 20.0274 20.942C20.3515 20.942 20.5831 20.8263 20.722 20.6177V20.8957H21.2082V19.7838ZM19.4254 19.7838C19.4254 19.3899 19.6801 19.0656 20.0968 19.0656C20.4904 19.0656 20.7683 19.3668 20.7683 19.7838C20.7683 20.1776 20.4904 20.5019 20.0968 20.5019C19.6801 20.4787 19.4254 20.1776 19.4254 19.7838ZM13.6141 18.6255C12.9658 18.6255 12.5026 19.0888 12.5026 19.7838C12.5026 20.4788 12.9656 20.942 13.6372 20.942C13.9613 20.942 14.2855 20.8494 14.5402 20.641L14.3086 20.2935C14.1234 20.4324 13.8919 20.5251 13.6604 20.5251C13.3594 20.5251 13.0584 20.3861 12.9889 19.9922H14.6328V19.807C14.656 19.0888 14.2393 18.6255 13.6141 18.6255ZM13.614 19.0424C13.9149 19.0424 14.1234 19.2278 14.1696 19.5753H13.0119C13.0582 19.2742 13.2667 19.0424 13.614 19.0424ZM25.6766 19.7838V17.7915H25.1904V18.9498C25.0283 18.7414 24.7968 18.6255 24.4958 18.6255C23.8707 18.6255 23.3845 19.112 23.3845 19.7838C23.3845 20.4556 23.8707 20.942 24.4958 20.942C24.82 20.942 25.0515 20.8263 25.1904 20.6177V20.8957H25.6766V19.7838ZM23.8939 19.7838C23.8939 19.3899 24.1485 19.0656 24.5653 19.0656C24.9589 19.0656 25.2367 19.3668 25.2367 19.7838C25.2367 20.1776 24.9589 20.5019 24.5653 20.5019C24.1485 20.4787 23.8939 20.1776 23.8939 19.7838ZM7.64043 19.7838V18.6718H7.15421V18.9498C6.99211 18.7414 6.7606 18.6255 6.4596 18.6255C5.83448 18.6255 5.34827 19.112 5.34827 19.7838C5.34827 20.4556 5.83448 20.942 6.4596 20.942C6.78381 20.942 7.01531 20.8263 7.15421 20.6177V20.8957H7.64043V19.7838ZM5.83448 19.7838C5.83448 19.3899 6.08919 19.0656 6.5059 19.0656C6.89951 19.0656 7.17742 19.3668 7.17742 19.7838C7.17742 20.1776 6.89951 20.5019 6.5059 20.5019C6.08919 20.4787 5.83448 20.1776 5.83448 19.7838Z" fill="black"/>
<path d="M9.83997 1.78369H17.1331V14.8956H9.83997V1.78369Z" fill="#FF5F00"/>
<path d="M10.3031 8.33974C10.3031 5.6757 11.5534 3.31272 13.475 1.78373C12.0628 0.671789 10.28 0 8.33519 0C3.72758 0 0 3.72966 0 8.33974C0 12.9497 3.72758 16.6795 8.33509 16.6795C10.2799 16.6795 12.0627 16.0077 13.475 14.8956C11.5534 13.3899 10.3031 11.0038 10.3031 8.33974Z" fill="#EB001B"/>
<path d="M26.9732 8.33974C26.9732 12.9497 23.2456 16.6795 18.6381 16.6795C16.6932 16.6795 14.9105 16.0077 13.4982 14.8956C15.443 13.3668 16.6701 11.0038 16.6701 8.33974C16.6701 5.6757 15.4198 3.31272 13.4982 1.78373C14.9104 0.671789 16.6932 0 18.6381 0C23.2456 0 26.9732 3.75288 26.9732 8.33974Z" fill="#F79E1B"/>
</g>
<defs>
<clipPath id="clip0_2401_5153">
<rect width="27" height="21" fill="white"/>
</clipPath>
</defs>
</svg>
