<svg width="25" height="25" viewBox="0 0 25 25" fill="none" xmlns="http://www.w3.org/2000/svg">
<path fill-rule="evenodd" clip-rule="evenodd" d="M12.4849 15.8462C8.61694 15.8462 5.31494 16.4312 5.31494 18.7732C5.31494 21.1152 8.59594 21.7212 12.4849 21.7212C16.3519 21.7212 19.6549 21.1352 19.6549 18.7942C19.6549 16.4532 16.3729 15.8462 12.4849 15.8462Z" stroke-width="1.5" stroke-linecap="round" stroke-linejoin="round"/>
<path fill-rule="evenodd" clip-rule="evenodd" d="M12.4847 12.506C13.3937 12.506 14.2823 12.2364 15.0381 11.7314C15.7939 11.2264 16.383 10.5086 16.7308 9.66878C17.0787 8.82897 17.1697 7.90487 16.9924 7.01333C16.8151 6.12179 16.3773 5.30287 15.7346 4.6601C15.0918 4.01734 14.2729 3.57962 13.3813 3.40228C12.4898 3.22494 11.5657 3.31596 10.7259 3.66382C9.88608 4.01168 9.16828 4.60076 8.66327 5.35657C8.15825 6.11237 7.8887 7.00096 7.8887 7.90997C7.88445 9.12449 8.36277 10.291 9.21848 11.1529C10.0742 12.0147 11.2372 12.5015 12.4517 12.506H12.4847Z" stroke-width="1.429" stroke-linecap="round" stroke-linejoin="round"/>
</svg>
