<svg width="41" height="21" viewBox="0 0 41 21" fill="none" xmlns="http://www.w3.org/2000/svg">
<path d="M21.2042 8.77609C21.1808 10.8573 22.8479 12.0186 24.1037 12.7092C25.3939 13.4176 25.8273 13.8719 25.8222 14.5055C25.8125 15.4751 24.793 15.9031 23.8389 15.9197C22.1744 15.9488 21.2066 15.4126 20.4372 15.007L19.8376 18.1731C20.6095 18.5745 22.0389 18.9246 23.5212 18.9399C27.0006 18.9399 29.2769 17.0019 29.2892 13.997C29.3028 10.1834 24.6146 9.97229 24.6466 8.26771C24.6577 7.75084 25.0947 7.19928 26.0525 7.05904C26.5265 6.98819 27.8352 6.93398 29.3188 7.70494L29.9012 4.64169C29.1033 4.31386 28.0778 3.99994 26.801 3.99994C23.5262 3.99994 21.2228 5.9644 21.2042 8.77609ZM35.4967 4.2638C34.8614 4.2638 34.326 4.68199 34.087 5.32374L29.1169 18.7149H32.5937L33.2856 16.5573H37.5342L37.9356 18.7149H41L38.3259 4.2638H35.4967ZM35.9831 8.16759L36.9865 13.5942H34.2385L35.9831 8.16759ZM16.9887 4.26398L14.2481 18.7148H17.5613L20.3006 4.26362L16.9887 4.26398ZM12.0875 4.26398L8.63899 14.0998L7.24403 5.73651C7.08035 4.80289 6.43396 4.2638 5.71614 4.2638H0.078957L0 4.68344C1.15729 4.96681 2.47217 5.42386 3.26879 5.91289C3.7563 6.21163 3.89532 6.47277 4.05548 7.18265L6.69757 18.7149H10.1988L15.5665 4.2638L12.0875 4.26398Z" fill="url(#paint0_linear_2417_6675)"/>
<defs>
<linearGradient id="paint0_linear_2417_6675" x1="1884.93" y1="48.9096" x2="1933.72" y2="-1485.12" gradientUnits="userSpaceOnUse">
<stop stop-color="#222357"/>
<stop offset="1" stop-color="#254AA5"/>
</linearGradient>
</defs>
</svg>
